<?xml version="1.0" encoding="UTF-8"?>
<mxfile host="app.diagrams.net" modified="2025-07-28T20:12:45.614Z" agent="HourBank Detailed MCP Server" version="1.0.0" etag="1753733565614-esf6dkm5clh" type="device">
  <diagram id="hourbank-detailed-architecture" name="HourBank Detailed Architecture">
    <mxGraphModel dx="2400" dy="1600" grid="1" gridSize="10" guides="1" tooltips="1" connect="1" arrows="1" fold="1" page="1" pageScale="1" pageWidth="2400" pageHeight="1600" math="0" shadow="0">
      <root>
        <mxCell id="0"/>
        <mxCell id="1" parent="0"/>
        <mxCell id="2" value="Presentation Layer" style="text;html=1;strokeColor=none;fillColor=none;align=left;verticalAlign=middle;whiteSpace=wrap;rounded=0;fontSize=16;fontStyle=1;fontColor=#333333" vertex="1" parent="1">
          <mxGeometry x="50" y="110" width="180" height="25" as="geometry"/>
        </mxCell>
        <mxCell id="3" value="API Layer" style="text;html=1;strokeColor=none;fillColor=none;align=left;verticalAlign=middle;whiteSpace=wrap;rounded=0;fontSize=16;fontStyle=1;fontColor=#333333" vertex="1" parent="1">
          <mxGeometry x="50" y="310" width="180" height="25" as="geometry"/>
        </mxCell>
        <mxCell id="4" value="Business Logic Layer" style="text;html=1;strokeColor=none;fillColor=none;align=left;verticalAlign=middle;whiteSpace=wrap;rounded=0;fontSize=16;fontStyle=1;fontColor=#333333" vertex="1" parent="1">
          <mxGeometry x="50" y="510" width="180" height="25" as="geometry"/>
        </mxCell>
        <mxCell id="5" value="Data Layer" style="text;html=1;strokeColor=none;fillColor=none;align=left;verticalAlign=middle;whiteSpace=wrap;rounded=0;fontSize=16;fontStyle=1;fontColor=#333333" vertex="1" parent="1">
          <mxGeometry x="50" y="710" width="180" height="25" as="geometry"/>
        </mxCell>
        <mxCell id="6" value="Mobile App\n(Ionic)" style="rounded=1;fillColor=#3DDC84;strokeColor=#000000;fontColor=#000000;fontSize=14;fontStyle=1;strokeWidth=2" vertex="1" parent="1">
          <mxGeometry x="900" y="80" width="180" height="80" as="geometry"/>
        </mxCell>
        <mxCell id="7" value="Web App\n(Angular)" style="rounded=1;fillColor=#61DAFB;strokeColor=#000000;fontColor=#000000;fontSize=14;fontStyle=1;strokeWidth=2" vertex="1" parent="1">
          <mxGeometry x="1320" y="80" width="180" height="80" as="geometry"/>
        </mxCell>
        <mxCell id="8" value="GraphQL API\n(GraphQL)" style="rounded=1;fillColor=#4B92DB;strokeColor=#000000;fontColor=#FFFFFF;fontSize=14;fontStyle=1;strokeWidth=2" vertex="1" parent="1">
          <mxGeometry x="1000" y="280" width="180" height="80" as="geometry"/>
        </mxCell>
        <mxCell id="9" value="API Gateway\n(AWS)" style="rounded=1;fillColor=#FF9900;strokeColor=#000000;fontColor=#FFFFFF;fontSize=14;fontStyle=1;strokeWidth=2" vertex="1" parent="1">
          <mxGeometry x="1220" y="280" width="180" height="80" as="geometry"/>
        </mxCell>
        <mxCell id="10" value="AWS Cognito\nAuthentication" style="shape=ellipse;fillColor=#9B59B6;strokeColor=#000000;fontColor=#FFFFFF;fontSize=14;fontStyle=1;strokeWidth=2" vertex="1" parent="1">
          <mxGeometry x="900" y="480" width="180" height="80" as="geometry"/>
        </mxCell>
        <mxCell id="11" value="AWS Lambda\nBusiness Logic" style="rounded=1;fillColor=#FF9900;strokeColor=#000000;fontColor=#FFFFFF;fontSize=14;fontStyle=1;strokeWidth=2" vertex="1" parent="1">
          <mxGeometry x="1110" y="480" width="180" height="80" as="geometry"/>
        </mxCell>
        <mxCell id="12" value="AWS Amplify\nHosting &amp; CI/CD" style="rounded=1;fillColor=#FF9900;strokeColor=#000000;fontColor=#FFFFFF;fontSize=14;fontStyle=1;strokeWidth=2" vertex="1" parent="1">
          <mxGeometry x="1320" y="480" width="180" height="80" as="geometry"/>
        </mxCell>
        <mxCell id="13" value="Core Tables" style="rounded=1;whiteSpace=wrap;html=1;fillColor=#FF6B6B;strokeColor=#000000;strokeWidth=2;opacity=30;fontStyle=1;fontSize=14;fontColor=#333333;align=left;verticalAlign=top;spacingTop=10;spacingLeft=10" vertex="1" parent="1">
          <mxGeometry x="180" y="670" width="540" height="180" as="geometry"/>
        </mxCell>
        <mxCell id="14" value="Scheduling Tables" style="rounded=1;whiteSpace=wrap;html=1;fillColor=#4ECDC4;strokeColor=#000000;strokeWidth=2;opacity=30;fontStyle=1;fontSize=14;fontColor=#333333;align=left;verticalAlign=top;spacingTop=10;spacingLeft=10" vertex="1" parent="1">
          <mxGeometry x="780" y="670" width="540" height="180" as="geometry"/>
        </mxCell>
        <mxCell id="15" value="Social Tables" style="rounded=1;whiteSpace=wrap;html=1;fillColor=#45B7D1;strokeColor=#000000;strokeWidth=2;opacity=30;fontStyle=1;fontSize=14;fontColor=#333333;align=left;verticalAlign=top;spacingTop=10;spacingLeft=10" vertex="1" parent="1">
          <mxGeometry x="1380" y="670" width="440" height="180" as="geometry"/>
        </mxCell>
        <mxCell id="16" value="Communication Tables" style="rounded=1;whiteSpace=wrap;html=1;fillColor=#96CEB4;strokeColor=#000000;strokeWidth=2;opacity=30;fontStyle=1;fontSize=14;fontColor=#333333;align=left;verticalAlign=top;spacingTop=10;spacingLeft=10" vertex="1" parent="1">
          <mxGeometry x="180" y="1050" width="540" height="180" as="geometry"/>
        </mxCell>
        <mxCell id="17" value="Metadata Tables" style="rounded=1;whiteSpace=wrap;html=1;fillColor=#FFEAA7;strokeColor=#000000;strokeWidth=2;opacity=30;fontStyle=1;fontSize=14;fontColor=#333333;align=left;verticalAlign=top;spacingTop=10;spacingLeft=10" vertex="1" parent="1">
          <mxGeometry x="780" y="1050" width="440" height="180" as="geometry"/>
        </mxCell>
        <mxCell id="18" value="Moderation Tables" style="rounded=1;whiteSpace=wrap;html=1;fillColor=#DDA0DD;strokeColor=#000000;strokeWidth=2;opacity=30;fontStyle=1;fontSize=14;fontColor=#333333;align=left;verticalAlign=top;spacingTop=10;spacingLeft=10" vertex="1" parent="1">
          <mxGeometry x="1280" y="1050" width="340" height="180" as="geometry"/>
        </mxCell>
        <mxCell id="19" value="User\n• id: ID (PK)\n• email: String\n• username: String\n• firstName: String\n... +7 more" style="shape=table;startSize=30;container=1;collapsible=0;childLayout=tableLayout;fixedRows=1;rowLines=0;fontStyle=1;align=center;resizeLast=1;fillColor=#FF6B6B;strokeColor=#000000;fontColor=#000000;fontSize=11;strokeWidth=2" vertex="1" parent="1">
          <mxGeometry x="200" y="720" width="140" height="100" as="geometry"/>
        </mxCell>
        <mxCell id="20" value="Service\n• id: ID (PK)\n• userId: ID\n• title: String\n• description: String\n... +9 more" style="shape=table;startSize=30;container=1;collapsible=0;childLayout=tableLayout;fixedRows=1;rowLines=0;fontStyle=1;align=center;resizeLast=1;fillColor=#FF6B6B;strokeColor=#000000;fontColor=#000000;fontSize=11;strokeWidth=2" vertex="1" parent="1">
          <mxGeometry x="360" y="720" width="140" height="100" as="geometry"/>
        </mxCell>
        <mxCell id="21" value="Transaction\n• id: ID (PK)\n• providerId: ID\n• consumerId: ID\n• serviceId: ID\n... +7 more" style="shape=table;startSize=30;container=1;collapsible=0;childLayout=tableLayout;fixedRows=1;rowLines=0;fontStyle=1;align=center;resizeLast=1;fillColor=#FF6B6B;strokeColor=#000000;fontColor=#000000;fontSize=11;strokeWidth=2" vertex="1" parent="1">
          <mxGeometry x="520" y="720" width="140" height="100" as="geometry"/>
        </mxCell>
        <mxCell id="22" value="ServiceSchedule\n• id: ID (PK)\n• serviceId: ID\n• userId: ID\n• dayOfWeek: Int # 0 = Sunday, 1 = Monday, etc.\n... +3 more" style="shape=table;startSize=30;container=1;collapsible=0;childLayout=tableLayout;fixedRows=1;rowLines=0;fontStyle=1;align=center;resizeLast=1;fillColor=#4ECDC4;strokeColor=#000000;fontColor=#000000;fontSize=11;strokeWidth=2" vertex="1" parent="1">
          <mxGeometry x="800" y="720" width="140" height="100" as="geometry"/>
        </mxCell>
        <mxCell id="23" value="Booking\n• id: ID (PK)\n• serviceId: ID\n• providerId: ID\n• consumerId: ID\n... +12 more" style="shape=table;startSize=30;container=1;collapsible=0;childLayout=tableLayout;fixedRows=1;rowLines=0;fontStyle=1;align=center;resizeLast=1;fillColor=#4ECDC4;strokeColor=#000000;fontColor=#000000;fontSize=11;strokeWidth=2" vertex="1" parent="1">
          <mxGeometry x="960" y="720" width="140" height="100" as="geometry"/>
        </mxCell>
        <mxCell id="24" value="ScheduleException\n• id: ID (PK)\n• serviceId: ID\n• userId: ID\n• exceptionDate: Date\n... +4 more" style="shape=table;startSize=30;container=1;collapsible=0;childLayout=tableLayout;fixedRows=1;rowLines=0;fontStyle=1;align=center;resizeLast=1;fillColor=#4ECDC4;strokeColor=#000000;fontColor=#000000;fontSize=11;strokeWidth=2" vertex="1" parent="1">
          <mxGeometry x="1120" y="720" width="140" height="100" as="geometry"/>
        </mxCell>
        <mxCell id="25" value="Category\n• id: ID (PK)\n• name: String\n• description: String\n• icon: String\n... +2 more" style="shape=table;startSize=30;container=1;collapsible=0;childLayout=tableLayout;fixedRows=1;rowLines=0;fontStyle=1;align=center;resizeLast=1;fillColor=#FFEAA7;strokeColor=#000000;fontColor=#000000;fontSize=11;strokeWidth=2" vertex="1" parent="1">
          <mxGeometry x="800" y="1100" width="140" height="100" as="geometry"/>
        </mxCell>
        <mxCell id="26" value="Skill\n• id: ID (PK)\n• name: String\n• category: String\n• description: String\n... +1 more" style="shape=table;startSize=30;container=1;collapsible=0;childLayout=tableLayout;fixedRows=1;rowLines=0;fontStyle=1;align=center;resizeLast=1;fillColor=#FFEAA7;strokeColor=#000000;fontColor=#000000;fontSize=11;strokeWidth=2" vertex="1" parent="1">
          <mxGeometry x="960" y="1100" width="140" height="100" as="geometry"/>
        </mxCell>
        <mxCell id="27" value="Rating\n• id: ID (PK)\n• transactionId: ID\n• raterId: ID\n• ratedUserId: ID\n... +3 more" style="shape=table;startSize=30;container=1;collapsible=0;childLayout=tableLayout;fixedRows=1;rowLines=0;fontStyle=1;align=center;resizeLast=1;fillColor=#45B7D1;strokeColor=#000000;fontColor=#000000;fontSize=11;strokeWidth=2" vertex="1" parent="1">
          <mxGeometry x="1400" y="720" width="140" height="100" as="geometry"/>
        </mxCell>
        <mxCell id="28" value="Notification\n• id: ID (PK)\n• userId: ID\n• type: NotificationType\n• title: String\n... +3 more" style="shape=table;startSize=30;container=1;collapsible=0;childLayout=tableLayout;fixedRows=1;rowLines=0;fontStyle=1;align=center;resizeLast=1;fillColor=#96CEB4;strokeColor=#000000;fontColor=#000000;fontSize=11;strokeWidth=2" vertex="1" parent="1">
          <mxGeometry x="200" y="1100" width="140" height="100" as="geometry"/>
        </mxCell>
        <mxCell id="29" value="Message\n• id: ID (PK)\n• senderId: ID\n• receiverId: ID\n• conversationId: ID\n... +3 more" style="shape=table;startSize=30;container=1;collapsible=0;childLayout=tableLayout;fixedRows=1;rowLines=0;fontStyle=1;align=center;resizeLast=1;fillColor=#96CEB4;strokeColor=#000000;fontColor=#000000;fontSize=11;strokeWidth=2" vertex="1" parent="1">
          <mxGeometry x="360" y="1100" width="140" height="100" as="geometry"/>
        </mxCell>
        <mxCell id="30" value="Conversation\n• id: ID (PK)\n• user1Id: ID\n• user2Id: ID\n• lastMessageId: ID\n... +1 more" style="shape=table;startSize=30;container=1;collapsible=0;childLayout=tableLayout;fixedRows=1;rowLines=0;fontStyle=1;align=center;resizeLast=1;fillColor=#96CEB4;strokeColor=#000000;fontColor=#000000;fontSize=11;strokeWidth=2" vertex="1" parent="1">
          <mxGeometry x="520" y="1100" width="140" height="100" as="geometry"/>
        </mxCell>
        <mxCell id="31" value="Report\n• id: ID (PK)\n• reporterId: ID\n• reportedUserId: ID\n• transactionId: ID\n... +5 more" style="shape=table;startSize=30;container=1;collapsible=0;childLayout=tableLayout;fixedRows=1;rowLines=0;fontStyle=1;align=center;resizeLast=1;fillColor=#DDA0DD;strokeColor=#000000;fontColor=#000000;fontSize=11;strokeWidth=2" vertex="1" parent="1">
          <mxGeometry x="1300" y="1100" width="140" height="100" as="geometry"/>
        </mxCell>
        <mxCell id="32" value="GraphQL" style="edgeStyle=orthogonalEdgeStyle;rounded=0;orthogonalLoop=1;jettySize=auto;html=1;strokeWidth=3;strokeColor=#666666;fontColor=#000000;fontSize=12" edge="1" parent="1" source="6" target="8">
          <mxGeometry relative="1" as="geometry"/>
        </mxCell>
        <mxCell id="33" value="GraphQL" style="edgeStyle=orthogonalEdgeStyle;rounded=0;orthogonalLoop=1;jettySize=auto;html=1;strokeWidth=3;strokeColor=#666666;fontColor=#000000;fontSize=12" edge="1" parent="1" source="7" target="8">
          <mxGeometry relative="1" as="geometry"/>
        </mxCell>
        <mxCell id="34" value="API" style="edgeStyle=orthogonalEdgeStyle;rounded=0;orthogonalLoop=1;jettySize=auto;html=1;strokeWidth=3;strokeColor=#666666;fontColor=#000000;fontSize=12" edge="1" parent="1" source="8" target="9">
          <mxGeometry relative="1" as="geometry"/>
        </mxCell>
        <mxCell id="35" value="Auth" style="edgeStyle=orthogonalEdgeStyle;rounded=0;orthogonalLoop=1;jettySize=auto;html=1;strokeWidth=3;strokeColor=#666666;fontColor=#000000;fontSize=12" edge="1" parent="1" source="9" target="10">
          <mxGeometry relative="1" as="geometry"/>
        </mxCell>
        <mxCell id="36" value="Functions" style="edgeStyle=orthogonalEdgeStyle;rounded=0;orthogonalLoop=1;jettySize=auto;html=1;strokeWidth=3;strokeColor=#666666;fontColor=#000000;fontSize=12" edge="1" parent="1" source="9" target="11">
          <mxGeometry relative="1" as="geometry"/>
        </mxCell>
        <mxCell id="37" value="Deploy" style="edgeStyle=orthogonalEdgeStyle;rounded=0;orthogonalLoop=1;jettySize=auto;html=1;strokeWidth=3;strokeColor=#666666;fontColor=#000000;fontSize=12" edge="1" parent="1" source="11" target="12">
          <mxGeometry relative="1" as="geometry"/>
        </mxCell>
        <mxCell id="38" value="" style="edgeStyle=orthogonalEdgeStyle;rounded=0;orthogonalLoop=1;jettySize=auto;html=1;strokeWidth=2;strokeColor=#4CAF50;fontColor=#000000;fontSize=10;endArrow=classic;endFill=1;startArrow=none;startFill=0" edge="1" parent="1" source="19" target="20">
          <mxGeometry relative="1" as="geometry"/>
        </mxCell>
        <mxCell id="39" value="" style="edgeStyle=orthogonalEdgeStyle;rounded=0;orthogonalLoop=1;jettySize=auto;html=1;strokeWidth=2;strokeColor=#4CAF50;fontColor=#000000;fontSize=10;endArrow=classic;endFill=1;startArrow=none;startFill=0" edge="1" parent="1" source="19" target="21">
          <mxGeometry relative="1" as="geometry"/>
        </mxCell>
        <mxCell id="40" value="" style="edgeStyle=orthogonalEdgeStyle;rounded=0;orthogonalLoop=1;jettySize=auto;html=1;strokeWidth=2;strokeColor=#4CAF50;fontColor=#000000;fontSize=10;endArrow=classic;endFill=1;startArrow=none;startFill=0" edge="1" parent="1" source="19" target="21">
          <mxGeometry relative="1" as="geometry"/>
        </mxCell>
        <mxCell id="41" value="" style="edgeStyle=orthogonalEdgeStyle;rounded=0;orthogonalLoop=1;jettySize=auto;html=1;strokeWidth=2;strokeColor=#4CAF50;fontColor=#000000;fontSize=10;endArrow=classic;endFill=1;startArrow=none;startFill=0" edge="1" parent="1" source="19" target="27">
          <mxGeometry relative="1" as="geometry"/>
        </mxCell>
        <mxCell id="42" value="" style="edgeStyle=orthogonalEdgeStyle;rounded=0;orthogonalLoop=1;jettySize=auto;html=1;strokeWidth=2;strokeColor=#4CAF50;fontColor=#000000;fontSize=10;endArrow=classic;endFill=1;startArrow=none;startFill=0" edge="1" parent="1" source="19" target="27">
          <mxGeometry relative="1" as="geometry"/>
        </mxCell>
        <mxCell id="43" value="" style="edgeStyle=orthogonalEdgeStyle;rounded=0;orthogonalLoop=1;jettySize=auto;html=1;strokeWidth=2;strokeColor=#2196F3;fontColor=#000000;fontSize=10;endArrow=classic;endFill=1;startArrow=none;startFill=0" edge="1" parent="1" source="20" target="19">
          <mxGeometry relative="1" as="geometry"/>
        </mxCell>
        <mxCell id="44" value="" style="edgeStyle=orthogonalEdgeStyle;rounded=0;orthogonalLoop=1;jettySize=auto;html=1;strokeWidth=2;strokeColor=#4CAF50;fontColor=#000000;fontSize=10;endArrow=classic;endFill=1;startArrow=none;startFill=0" edge="1" parent="1" source="20" target="21">
          <mxGeometry relative="1" as="geometry"/>
        </mxCell>
        <mxCell id="45" value="" style="edgeStyle=orthogonalEdgeStyle;rounded=0;orthogonalLoop=1;jettySize=auto;html=1;strokeWidth=2;strokeColor=#4CAF50;fontColor=#000000;fontSize=10;endArrow=classic;endFill=1;startArrow=none;startFill=0" edge="1" parent="1" source="20" target="22">
          <mxGeometry relative="1" as="geometry"/>
        </mxCell>
        <mxCell id="46" value="" style="edgeStyle=orthogonalEdgeStyle;rounded=0;orthogonalLoop=1;jettySize=auto;html=1;strokeWidth=2;strokeColor=#4CAF50;fontColor=#000000;fontSize=10;endArrow=classic;endFill=1;startArrow=none;startFill=0" edge="1" parent="1" source="20" target="23">
          <mxGeometry relative="1" as="geometry"/>
        </mxCell>
        <mxCell id="47" value="" style="edgeStyle=orthogonalEdgeStyle;rounded=0;orthogonalLoop=1;jettySize=auto;html=1;strokeWidth=2;strokeColor=#2196F3;fontColor=#000000;fontSize=10;endArrow=classic;endFill=1;startArrow=none;startFill=0" edge="1" parent="1" source="22" target="20">
          <mxGeometry relative="1" as="geometry"/>
        </mxCell>
        <mxCell id="48" value="" style="edgeStyle=orthogonalEdgeStyle;rounded=0;orthogonalLoop=1;jettySize=auto;html=1;strokeWidth=2;strokeColor=#2196F3;fontColor=#000000;fontSize=10;endArrow=classic;endFill=1;startArrow=none;startFill=0" edge="1" parent="1" source="22" target="19">
          <mxGeometry relative="1" as="geometry"/>
        </mxCell>
        <mxCell id="49" value="" style="edgeStyle=orthogonalEdgeStyle;rounded=0;orthogonalLoop=1;jettySize=auto;html=1;strokeWidth=2;strokeColor=#2196F3;fontColor=#000000;fontSize=10;endArrow=classic;endFill=1;startArrow=none;startFill=0" edge="1" parent="1" source="23" target="20">
          <mxGeometry relative="1" as="geometry"/>
        </mxCell>
        <mxCell id="50" value="" style="edgeStyle=orthogonalEdgeStyle;rounded=0;orthogonalLoop=1;jettySize=auto;html=1;strokeWidth=2;strokeColor=#2196F3;fontColor=#000000;fontSize=10;endArrow=classic;endFill=1;startArrow=none;startFill=0" edge="1" parent="1" source="23" target="19">
          <mxGeometry relative="1" as="geometry"/>
        </mxCell>
        <mxCell id="51" value="" style="edgeStyle=orthogonalEdgeStyle;rounded=0;orthogonalLoop=1;jettySize=auto;html=1;strokeWidth=2;strokeColor=#2196F3;fontColor=#000000;fontSize=10;endArrow=classic;endFill=1;startArrow=none;startFill=0" edge="1" parent="1" source="23" target="19">
          <mxGeometry relative="1" as="geometry"/>
        </mxCell>
        <mxCell id="52" value="" style="edgeStyle=orthogonalEdgeStyle;rounded=0;orthogonalLoop=1;jettySize=auto;html=1;strokeWidth=2;strokeColor=#FF9800;fontColor=#000000;fontSize=10;endArrow=classic;endFill=1;startArrow=none;startFill=0" edge="1" parent="1" source="23" target="21">
          <mxGeometry relative="1" as="geometry"/>
        </mxCell>
        <mxCell id="53" value="" style="edgeStyle=orthogonalEdgeStyle;rounded=0;orthogonalLoop=1;jettySize=auto;html=1;strokeWidth=2;strokeColor=#2196F3;fontColor=#000000;fontSize=10;endArrow=classic;endFill=1;startArrow=none;startFill=0" edge="1" parent="1" source="24" target="20">
          <mxGeometry relative="1" as="geometry"/>
        </mxCell>
        <mxCell id="54" value="" style="edgeStyle=orthogonalEdgeStyle;rounded=0;orthogonalLoop=1;jettySize=auto;html=1;strokeWidth=2;strokeColor=#2196F3;fontColor=#000000;fontSize=10;endArrow=classic;endFill=1;startArrow=none;startFill=0" edge="1" parent="1" source="24" target="19">
          <mxGeometry relative="1" as="geometry"/>
        </mxCell>
        <mxCell id="55" value="" style="edgeStyle=orthogonalEdgeStyle;rounded=0;orthogonalLoop=1;jettySize=auto;html=1;strokeWidth=2;strokeColor=#2196F3;fontColor=#000000;fontSize=10;endArrow=classic;endFill=1;startArrow=none;startFill=0" edge="1" parent="1" source="21" target="19">
          <mxGeometry relative="1" as="geometry"/>
        </mxCell>
        <mxCell id="56" value="" style="edgeStyle=orthogonalEdgeStyle;rounded=0;orthogonalLoop=1;jettySize=auto;html=1;strokeWidth=2;strokeColor=#2196F3;fontColor=#000000;fontSize=10;endArrow=classic;endFill=1;startArrow=none;startFill=0" edge="1" parent="1" source="21" target="19">
          <mxGeometry relative="1" as="geometry"/>
        </mxCell>
        <mxCell id="57" value="" style="edgeStyle=orthogonalEdgeStyle;rounded=0;orthogonalLoop=1;jettySize=auto;html=1;strokeWidth=2;strokeColor=#2196F3;fontColor=#000000;fontSize=10;endArrow=classic;endFill=1;startArrow=none;startFill=0" edge="1" parent="1" source="21" target="20">
          <mxGeometry relative="1" as="geometry"/>
        </mxCell>
        <mxCell id="58" value="" style="edgeStyle=orthogonalEdgeStyle;rounded=0;orthogonalLoop=1;jettySize=auto;html=1;strokeWidth=2;strokeColor=#2196F3;fontColor=#000000;fontSize=10;endArrow=classic;endFill=1;startArrow=none;startFill=0" edge="1" parent="1" source="21" target="23">
          <mxGeometry relative="1" as="geometry"/>
        </mxCell>
        <mxCell id="59" value="" style="edgeStyle=orthogonalEdgeStyle;rounded=0;orthogonalLoop=1;jettySize=auto;html=1;strokeWidth=2;strokeColor=#4CAF50;fontColor=#000000;fontSize=10;endArrow=classic;endFill=1;startArrow=none;startFill=0" edge="1" parent="1" source="25" target="20">
          <mxGeometry relative="1" as="geometry"/>
        </mxCell>
        <mxCell id="60" value="" style="edgeStyle=orthogonalEdgeStyle;rounded=0;orthogonalLoop=1;jettySize=auto;html=1;strokeWidth=2;strokeColor=#2196F3;fontColor=#000000;fontSize=10;endArrow=classic;endFill=1;startArrow=none;startFill=0" edge="1" parent="1" source="27" target="21">
          <mxGeometry relative="1" as="geometry"/>
        </mxCell>
        <mxCell id="61" value="" style="edgeStyle=orthogonalEdgeStyle;rounded=0;orthogonalLoop=1;jettySize=auto;html=1;strokeWidth=2;strokeColor=#2196F3;fontColor=#000000;fontSize=10;endArrow=classic;endFill=1;startArrow=none;startFill=0" edge="1" parent="1" source="27" target="19">
          <mxGeometry relative="1" as="geometry"/>
        </mxCell>
        <mxCell id="62" value="" style="edgeStyle=orthogonalEdgeStyle;rounded=0;orthogonalLoop=1;jettySize=auto;html=1;strokeWidth=2;strokeColor=#2196F3;fontColor=#000000;fontSize=10;endArrow=classic;endFill=1;startArrow=none;startFill=0" edge="1" parent="1" source="27" target="19">
          <mxGeometry relative="1" as="geometry"/>
        </mxCell>
        <mxCell id="63" value="" style="edgeStyle=orthogonalEdgeStyle;rounded=0;orthogonalLoop=1;jettySize=auto;html=1;strokeWidth=2;strokeColor=#2196F3;fontColor=#000000;fontSize=10;endArrow=classic;endFill=1;startArrow=none;startFill=0" edge="1" parent="1" source="28" target="19">
          <mxGeometry relative="1" as="geometry"/>
        </mxCell>
        <mxCell id="64" value="" style="edgeStyle=orthogonalEdgeStyle;rounded=0;orthogonalLoop=1;jettySize=auto;html=1;strokeWidth=2;strokeColor=#2196F3;fontColor=#000000;fontSize=10;endArrow=classic;endFill=1;startArrow=none;startFill=0" edge="1" parent="1" source="29" target="19">
          <mxGeometry relative="1" as="geometry"/>
        </mxCell>
        <mxCell id="65" value="" style="edgeStyle=orthogonalEdgeStyle;rounded=0;orthogonalLoop=1;jettySize=auto;html=1;strokeWidth=2;strokeColor=#2196F3;fontColor=#000000;fontSize=10;endArrow=classic;endFill=1;startArrow=none;startFill=0" edge="1" parent="1" source="29" target="19">
          <mxGeometry relative="1" as="geometry"/>
        </mxCell>
        <mxCell id="66" value="" style="edgeStyle=orthogonalEdgeStyle;rounded=0;orthogonalLoop=1;jettySize=auto;html=1;strokeWidth=2;strokeColor=#2196F3;fontColor=#000000;fontSize=10;endArrow=classic;endFill=1;startArrow=none;startFill=0" edge="1" parent="1" source="30" target="19">
          <mxGeometry relative="1" as="geometry"/>
        </mxCell>
        <mxCell id="67" value="" style="edgeStyle=orthogonalEdgeStyle;rounded=0;orthogonalLoop=1;jettySize=auto;html=1;strokeWidth=2;strokeColor=#2196F3;fontColor=#000000;fontSize=10;endArrow=classic;endFill=1;startArrow=none;startFill=0" edge="1" parent="1" source="30" target="19">
          <mxGeometry relative="1" as="geometry"/>
        </mxCell>
        <mxCell id="68" value="" style="edgeStyle=orthogonalEdgeStyle;rounded=0;orthogonalLoop=1;jettySize=auto;html=1;strokeWidth=2;strokeColor=#2196F3;fontColor=#000000;fontSize=10;endArrow=classic;endFill=1;startArrow=none;startFill=0" edge="1" parent="1" source="31" target="19">
          <mxGeometry relative="1" as="geometry"/>
        </mxCell>
        <mxCell id="69" value="" style="edgeStyle=orthogonalEdgeStyle;rounded=0;orthogonalLoop=1;jettySize=auto;html=1;strokeWidth=2;strokeColor=#2196F3;fontColor=#000000;fontSize=10;endArrow=classic;endFill=1;startArrow=none;startFill=0" edge="1" parent="1" source="31" target="19">
          <mxGeometry relative="1" as="geometry"/>
        </mxCell>
        <mxCell id="70" value="" style="edgeStyle=orthogonalEdgeStyle;rounded=0;orthogonalLoop=1;jettySize=auto;html=1;strokeWidth=2;strokeColor=#2196F3;fontColor=#000000;fontSize=10;endArrow=classic;endFill=1;startArrow=none;startFill=0" edge="1" parent="1" source="31" target="21">
          <mxGeometry relative="1" as="geometry"/>
        </mxCell>
      </root>
    </mxGraphModel>
  </diagram>
</mxfile>